<svg width="406" height="306" viewBox="0 0 406 306" fill="none" xmlns="http://www.w3.org/2000/svg">
<path d="M196.504 292.177L14.078 184.363C8.27225 181.105 3.2886 175.756 8.9523 172.285L192.028 66.725C194.778 65.0198 198.95 63.9033 201.741 65.5273L393.231 176.67C399.037 180.04 400.083 189.459 394.246 192.839L220.549 292.055C216.898 294.163 212.759 295.283 208.543 295.305C204.326 295.326 200.177 294.248 196.504 292.177Z" fill="url(#paint0_linear_10_242)"/>
<path d="M50.0598 84.7717V182.344L168.602 112.542V13.7319L50.0598 84.7717Z" fill="#FFDB3C"/>
<path d="M210.44 230.414C232.123 230.414 249.7 227.142 249.7 223.106C249.7 219.07 232.123 215.798 210.44 215.798C188.757 215.798 171.18 219.07 171.18 223.106C171.18 227.142 188.757 230.414 210.44 230.414Z" fill="#194E72"/>
<path d="M59.6516 188.281L58.7381 188.901C82.2353 202.268 144.465 238.199 189.328 264.153L190.201 263.483C143.683 236.575 83.3721 201.72 59.6516 188.281Z" fill="#06052F"/>
<path d="M349.86 190.859L226.822 262.214L227.837 262.813L350.987 191.387L349.86 190.859Z" fill="#06052F"/>
<path d="M226.822 265.716C229.855 265.716 232.313 264.162 232.313 262.244C232.313 260.327 229.855 258.773 226.822 258.773C223.789 258.773 221.331 260.327 221.331 262.244C221.331 264.162 223.789 265.716 226.822 265.716Z" fill="#06052F"/>
<path d="M190.191 267.624C193.223 267.624 195.682 266.07 195.682 264.153C195.682 262.236 193.223 260.681 190.191 260.681C187.158 260.681 184.7 262.236 184.7 264.153C184.7 266.07 187.158 267.624 190.191 267.624Z" fill="#06052F"/>
<path d="M60.3621 192.047C63.3947 192.047 65.8532 190.493 65.8532 188.576C65.8532 186.659 63.3947 185.104 60.3621 185.104C57.3294 185.104 54.8709 186.659 54.8709 188.576C54.8709 190.493 57.3294 192.047 60.3621 192.047Z" fill="#06052F"/>
<path d="M348.998 195.204C352.03 195.204 354.489 193.65 354.489 191.732C354.489 189.815 352.03 188.261 348.998 188.261C345.965 188.261 343.506 189.815 343.506 191.732C343.506 193.65 345.965 195.204 348.998 195.204Z" fill="#06052F"/>
<path d="M231.501 183.125C231.501 183.125 237.53 183.765 239.317 186.972C241.103 190.179 242.687 195.386 243.844 197.345C245.001 199.304 246.513 197.092 246.95 193.996C247.386 190.9 245.397 187.957 246.604 185.196C247.812 182.435 246.686 180.953 244.168 180.121C241.651 179.289 237.287 178.375 232.435 176.345" fill="#4E62D4"/>
<path d="M246.584 165.586C246.584 165.586 252.278 163.556 255.293 165.586C258.307 167.616 262.012 171.676 263.92 172.914C265.828 174.153 266.204 171.514 265.24 168.54C264.276 165.566 261.18 163.8 261.058 160.785C260.936 157.77 259.272 156.928 256.622 157.273C253.973 157.618 249.69 158.765 244.442 159.039" fill="#4E62D4"/>
<path d="M178.447 147.336C178.447 147.336 193.023 177.583 197.428 178.395C201.833 179.207 229.715 191.996 231.999 190.322C234.282 188.647 235.5 176.315 234.577 175.097C233.653 173.879 205.659 167.037 205.314 166.469C204.969 165.901 192.403 144.139 192.403 144.139L178.447 147.336Z" fill="#ED9B2F"/>
<path d="M181.868 145.245C181.868 145.245 202.289 167.21 206.167 169.433C213.13 173.493 247.65 170.346 249.213 167.992C250.776 165.637 249.954 157.842 248.665 156.999C247.376 156.157 214.155 156.999 213.607 156.583C213.059 156.167 198.382 142.474 198.382 142.474L181.868 145.245Z" fill="#FBB03B"/>
<path d="M209.77 123.687C210.887 123.585 212.064 123.453 213.211 123.23C214.879 122.268 216.495 121.217 218.052 120.084C218.627 119.503 219.292 119.02 220.022 118.652C220.153 118.571 220.301 118.521 220.455 118.506C220.609 118.49 220.764 118.51 220.909 118.564C221.054 118.618 221.185 118.704 221.291 118.816C221.398 118.928 221.477 119.063 221.524 119.211C221.598 119.58 221.574 119.962 221.452 120.319C221.331 120.675 221.118 120.993 220.834 121.241C220.387 121.708 219.91 122.154 219.433 122.601C221.449 122.388 223.447 122.028 225.411 121.525C226.67 121.23 227.258 123.159 225.99 123.453L224.63 123.768C225.48 123.745 226.33 123.769 227.177 123.839C228.192 123.93 228.72 125.534 227.502 125.808C225.859 126.183 224.189 126.431 222.508 126.549C223.638 126.624 224.775 126.664 225.919 126.671C227.208 126.671 227.289 128.701 225.99 128.701C224.393 128.701 222.799 128.63 221.209 128.488C221.767 128.802 222.315 129.127 222.853 129.503C223.95 130.183 223.026 131.979 221.92 131.289C220.813 130.599 219.788 130.02 218.692 129.442H218.56C215.021 129.828 211.475 130.142 207.923 130.386C206.624 130.477 206.563 128.457 207.852 128.356L209.486 128.234C209.425 128.089 209.394 127.934 209.394 127.777C209.394 127.62 209.425 127.465 209.486 127.32C209.324 127.248 209.184 127.134 209.079 126.99C208.975 126.846 208.911 126.677 208.892 126.5C208.874 126.323 208.902 126.145 208.974 125.983C209.046 125.82 209.16 125.679 209.303 125.575C209.115 125.464 208.968 125.295 208.883 125.094C208.799 124.892 208.781 124.669 208.834 124.457C208.886 124.245 209.006 124.055 209.174 123.917C209.343 123.778 209.552 123.697 209.77 123.687Z" fill="#FFC285"/>
<path d="M219.534 123.829C219.189 125.453 218.641 127.189 216.946 127.818C216.601 127.95 216.388 127.422 216.733 127.29C218.235 126.732 218.672 125.169 218.976 123.748C219.047 123.392 219.616 123.474 219.534 123.829Z" fill="#6D320B"/>
<path d="M221.199 124.235C222.813 123.955 224.409 123.582 225.98 123.118C226.244 123.037 226.406 123.433 226.142 123.514C224.538 123.986 222.908 124.366 221.26 124.651C220.986 124.712 220.935 124.286 221.199 124.235Z" fill="#6D320B"/>
<path d="M221.453 126.448C223.474 126.434 225.485 126.15 227.431 125.605C227.695 125.534 227.857 125.93 227.593 126.001C225.611 126.558 223.563 126.848 221.503 126.864C221.27 126.864 221.179 126.448 221.453 126.448Z" fill="#6D320B"/>
<path d="M220.255 128.457C221.902 128.62 223.561 128.62 225.208 128.457C225.482 128.457 225.533 128.853 225.259 128.884C223.571 129.051 221.871 129.051 220.184 128.884C219.9 128.843 219.95 128.427 220.255 128.457Z" fill="#6D320B"/>
<path d="M210.704 109.781C210.318 107.751 209.841 105.803 209.364 103.803C208.802 100.913 207.92 98.0941 206.735 95.3988C205.588 94.5056 203.487 94.5664 202.229 94.9826C200.645 95.5002 199.59 96.9517 198.169 97.784C196.321 98.8701 194.433 99.0325 192.434 99.5907C190.398 100.228 188.594 101.449 187.247 103.103C186.02 104.612 184.434 105.789 182.634 106.527C180.834 107.264 178.878 107.539 176.945 107.325C174.631 107.041 172.804 106.777 170.53 107.457C167.008 108.472 164.227 110.999 163.791 114.765C163.395 118.165 164.856 121.433 168.216 122.611C169.909 123.073 171.705 122.995 173.352 122.388C174.915 121.951 176.651 121.971 178.173 121.373L178.346 121.302C179.699 120.598 181.096 119.981 182.527 119.454C184.426 118.947 186.415 118.835 188.343 118.439C190.901 117.901 192.769 116.409 194.758 114.765C197.296 112.735 199.275 112.735 202.371 112.948H202.919C204.98 112.935 206.995 112.333 208.725 111.212C209.424 110.793 210.086 110.314 210.704 109.781Z" fill="#EE6300"/>
<path d="M147.033 121.21C146.018 120.672 145.003 120.094 144.049 119.434C142.896 117.891 141.825 116.289 140.841 114.633C140.541 113.873 140.12 113.167 139.593 112.542C139.504 112.415 139.386 112.311 139.251 112.237C139.115 112.162 138.963 112.12 138.809 112.113C138.654 112.106 138.499 112.135 138.357 112.197C138.215 112.259 138.089 112.353 137.989 112.471C137.766 112.785 137.632 113.154 137.601 113.538C137.571 113.923 137.645 114.308 137.817 114.653C138.05 115.262 138.304 115.861 138.568 116.46C136.797 115.472 135.101 114.356 133.493 113.121C132.478 112.359 131.148 113.892 132.194 114.663L133.32 115.486C132.549 115.132 131.76 114.82 130.955 114.552C129.94 114.227 128.864 115.506 129.879 116.237C131.24 117.229 132.676 118.114 134.173 118.886C133.104 118.507 132.045 118.098 130.996 117.658C129.808 117.15 128.966 118.977 130.143 119.485C131.612 120.107 133.104 120.669 134.619 121.17C133.99 121.241 133.351 121.322 132.721 121.423C131.443 121.626 131.595 123.636 132.874 123.453C134.153 123.271 135.33 123.118 136.568 123.027L136.68 123.098C139.779 124.844 142.915 126.536 146.089 128.173C147.246 128.762 148.119 126.935 146.942 126.346L145.48 125.595C145.589 125.48 145.674 125.345 145.73 125.197C145.786 125.048 145.811 124.891 145.805 124.732C145.982 124.729 146.156 124.679 146.308 124.587C146.46 124.496 146.585 124.366 146.671 124.211C146.758 124.056 146.802 123.881 146.799 123.703C146.797 123.526 146.748 123.352 146.657 123.2C146.912 123.229 147.168 123.16 147.375 123.008C147.581 122.856 147.722 122.631 147.769 122.379C147.817 122.128 147.767 121.867 147.631 121.65C147.494 121.433 147.281 121.276 147.033 121.21Z" fill="#FFC285"/>
<path d="M138.04 117.475C137.715 119.099 137.543 120.916 138.852 122.164C139.116 122.418 139.522 122.012 139.258 121.768C138.101 120.662 138.314 119.048 138.588 117.627C138.619 117.292 138.04 117.14 138.04 117.475Z" fill="#6D320B"/>
<path d="M136.304 117.221C134.93 116.33 133.609 115.361 132.346 114.318C132.133 114.146 131.828 114.44 132.041 114.623C133.336 115.691 134.692 116.684 136.101 117.597C136.325 117.739 136.538 117.373 136.304 117.221Z" fill="#6D320B"/>
<path d="M135.218 119.15C133.365 118.342 131.627 117.291 130.052 116.024C129.839 115.851 129.534 116.156 129.747 116.328C131.348 117.615 133.113 118.684 134.995 119.505C135.249 119.627 135.462 119.261 135.218 119.15Z" fill="#06052F"/>
<path d="M135.553 121.484C133.952 120.98 132.405 120.317 130.935 119.505C130.691 119.373 130.478 119.738 130.722 119.87C132.21 120.679 133.774 121.338 135.391 121.84C135.695 121.971 135.807 121.535 135.553 121.484Z" fill="#06052F"/>
<path d="M177.117 118.003L170.52 120.429C165.437 123.271 159.457 124.056 153.813 122.621C150.45 121.76 147.2 120.506 144.13 118.886C142.994 121.031 142.235 123.355 141.887 125.757C141.677 126.982 141.555 128.22 141.521 129.462C147.327 133.208 158.908 137.724 168.551 135.897C168.551 135.897 176.833 148.138 181.228 154.797C181.228 154.797 191.277 153.985 199.843 143.388C199.864 143.378 180.863 119.667 177.117 118.003Z" fill="#4E62D4"/>
<path d="M174.001 119.657C174.001 119.657 190.576 121.241 214.815 121.362C214.815 121.362 217.352 127.869 216.256 131.604C216.256 131.604 192.911 136.679 182.629 130.985" fill="#4E62D4"/>
<path d="M165.618 117.475C165.618 117.475 167.221 124.753 172.723 125.118C178.224 125.483 179.929 116.633 175.24 112.167C170.55 107.701 164.897 110.827 165.618 117.475Z" fill="#FFC285"/>
<path d="M180.294 119.292C180.023 119.554 179.69 119.742 179.326 119.84C178.962 119.938 178.579 119.941 178.214 119.85C177.3 119.627 176.854 118.784 176.387 118.043C176.115 117.544 175.717 117.125 175.233 116.827C174.748 116.53 174.194 116.365 173.626 116.348C172.205 116.277 170.824 116.866 169.403 116.592L168.967 116.48C169.154 116.516 169.345 116.533 169.535 116.531C171.565 116.531 173.89 115.394 174.803 115.323C175.717 115.252 176.285 118.663 178.244 119.099C180.203 119.535 178.528 110.248 175.595 109.233C172.662 108.218 165.618 109.233 165.272 114.125C165.523 114.386 165.787 114.634 166.064 114.866C166.683 115.748 167.558 116.418 168.571 116.785C170.155 117.353 171.616 116.785 173.24 116.785C173.739 116.739 174.241 116.825 174.695 117.035C175.15 117.246 175.541 117.573 175.828 117.983C176.212 118.718 176.724 119.378 177.341 119.931C177.845 120.256 178.445 120.399 179.041 120.336C179.637 120.274 180.194 120.009 180.619 119.586C180.822 119.383 180.497 119.109 180.294 119.292Z" fill="#EE6300"/>
<path d="M72.7654 101.205L94.324 111.598L105.479 90.344L125.759 100.971L148.342 87.5833" fill="#06052F"/>
<path d="M72.7654 101.205L94.324 111.598L105.479 90.344L125.759 100.971L148.342 87.5833" stroke="#2E3192" stroke-width="1.015" stroke-miterlimit="10"/>
<path d="M94.324 111.598L82.4282 138.13" stroke="#2E3192" stroke-width="1.015" stroke-miterlimit="10"/>
<path d="M125.758 100.971L132.498 74.9465" stroke="#2E3192" stroke-width="1.015" stroke-miterlimit="10"/>
<path d="M116.126 121.89L105.479 90.344L90.1117 85.604" stroke="#2E3192" stroke-width="1.015" stroke-miterlimit="10"/>
<path d="M73.2627 104.483C74.3446 104.483 75.2216 103.179 75.2216 101.57C75.2216 99.9611 74.3446 98.6569 73.2627 98.6569C72.1808 98.6569 71.3037 99.9611 71.3037 101.57C71.3037 103.179 72.1808 104.483 73.2627 104.483Z" fill="#0D517F"/>
<path d="M82.4282 141.043C83.51 141.043 84.3871 139.739 84.3871 138.13C84.3871 136.521 83.51 135.217 82.4282 135.217C81.3463 135.217 80.4692 136.521 80.4692 138.13C80.4692 139.739 81.3463 141.043 82.4282 141.043Z" fill="#0D517F"/>
<path d="M90.1117 88.5171C91.1936 88.5171 92.0706 87.2128 92.0706 85.604C92.0706 83.9952 91.1936 82.691 90.1117 82.691C89.0298 82.691 88.1527 83.9952 88.1527 85.604C88.1527 87.2128 89.0298 88.5171 90.1117 88.5171Z" fill="#0D517F"/>
<path d="M116.126 124.803C117.208 124.803 118.085 123.499 118.085 121.89C118.085 120.281 117.208 118.977 116.126 118.977C115.044 118.977 114.167 120.281 114.167 121.89C114.167 123.499 115.044 124.803 116.126 124.803Z" fill="#0D517F"/>
<path d="M132.498 77.8596C133.58 77.8596 134.457 76.5553 134.457 74.9465C134.457 73.3377 133.58 72.0335 132.498 72.0335C131.416 72.0335 130.539 73.3377 130.539 74.9465C130.539 76.5553 131.416 77.8596 132.498 77.8596Z" fill="#0D517F"/>
<path d="M148.332 90.4963C149.414 90.4963 150.291 89.1921 150.291 87.5833C150.291 85.9744 149.414 84.6702 148.332 84.6702C147.25 84.6702 146.373 85.9744 146.373 87.5833C146.373 89.1921 147.25 90.4963 148.332 90.4963Z" fill="#0D517F"/>
<path d="M105.479 90.344L116.126 77.8596" stroke="#2E3192" stroke-width="1.015" stroke-miterlimit="10"/>
<path d="M116.126 80.7726C117.208 80.7726 118.085 79.4684 118.085 77.8596C118.085 76.2507 117.208 74.9465 116.126 74.9465C115.044 74.9465 114.167 76.2507 114.167 77.8596C114.167 79.4684 115.044 80.7726 116.126 80.7726Z" fill="#0D517F"/>
<path d="M105.479 94.5157C107.048 94.5157 108.321 92.648 108.321 90.344C108.321 88.0401 107.048 86.1724 105.479 86.1724C103.909 86.1724 102.637 88.0401 102.637 90.344C102.637 92.648 103.909 94.5157 105.479 94.5157Z" fill="#0D517F"/>
<path d="M94.324 115.77C95.8935 115.77 97.166 113.902 97.166 111.598C97.166 109.294 95.8935 107.426 94.324 107.426C92.7544 107.426 91.4819 109.294 91.4819 111.598C91.4819 113.902 92.7544 115.77 94.324 115.77Z" fill="#0D517F"/>
<path d="M125.758 103.762C127.328 103.762 128.6 101.895 128.6 99.5907C128.6 97.2868 127.328 95.419 125.758 95.419C124.189 95.419 122.916 97.2868 122.916 99.5907C122.916 101.895 124.189 103.762 125.758 103.762Z" fill="#0D517F"/>
<path d="M334.087 153.213C335.04 153.213 335.813 152.332 335.813 151.244C335.813 150.157 335.04 149.275 334.087 149.275C333.134 149.275 332.362 150.157 332.362 151.244C332.362 152.332 333.134 153.213 334.087 153.213Z" fill="#0D517F"/>
<path d="M237.145 112.532V14.96L355.686 84.7717V183.572L237.145 112.532Z" fill="#FFDF53"/>
<path d="M252.319 40.0204V61.9951L290.99 85.5837V114.623" fill="#06052F"/>
<path d="M252.319 40.0204V61.9951L290.99 85.5837V114.623" stroke="#2E3192" stroke-width="1.015" stroke-miterlimit="10"/>
<path d="M252.116 41.6139C253.069 41.6139 253.841 40.7323 253.841 39.6448C253.841 38.5573 253.069 37.6757 252.116 37.6757C251.163 37.6757 250.39 38.5573 250.39 39.6448C250.39 40.7323 251.163 41.6139 252.116 41.6139Z" fill="#0D517F"/>
<path d="M290.99 116.592C291.943 116.592 292.716 115.71 292.716 114.623C292.716 113.535 291.943 112.654 290.99 112.654C290.037 112.654 289.265 113.535 289.265 114.623C289.265 115.71 290.037 116.592 290.99 116.592Z" fill="#0D517F"/>
<path d="M271.655 73.7894V84.4164L323.359 114.623V91.9782" stroke="#2E3192" stroke-width="1.015" stroke-miterlimit="10"/>
<path d="M313.006 86.9641V138.912L334.087 151.335" stroke="#2E3192" stroke-width="1.015" stroke-miterlimit="10"/>
<path d="M312.64 127.747L334.087 139.612" stroke="#2E3192" stroke-width="1.015" stroke-miterlimit="10"/>
<path d="M313.006 88.9231C313.959 88.9231 314.731 88.0415 314.731 86.954C314.731 85.8664 313.959 84.9848 313.006 84.9848C312.053 84.9848 311.28 85.8664 311.28 86.954C311.28 88.0415 312.053 88.9231 313.006 88.9231Z" fill="#0D517F"/>
<path d="M323.359 93.6733C324.312 93.6733 325.084 92.7917 325.084 91.7041C325.084 90.6166 324.312 89.735 323.359 89.735C322.406 89.735 321.633 90.6166 321.633 91.7041C321.633 92.7917 322.406 93.6733 323.359 93.6733Z" fill="#0D517F"/>
<path d="M334.087 141.033C335.04 141.033 335.813 140.152 335.813 139.064C335.813 137.977 335.04 137.095 334.087 137.095C333.134 137.095 332.362 137.977 332.362 139.064C332.362 140.152 333.134 141.033 334.087 141.033Z" fill="#0D517F"/>
<path d="M263.596 68.8768V104.676L250.39 97.6114" stroke="#2E3192" stroke-width="1.015" stroke-miterlimit="10"/>
<path d="M249.731 99.6212C250.684 99.6212 251.456 98.7396 251.456 97.6521C251.456 96.5646 250.684 95.683 249.731 95.683C248.778 95.683 248.005 96.5646 248.005 97.6521C248.005 98.7396 248.778 99.6212 249.731 99.6212Z" fill="#0D517F"/>
<defs>
<linearGradient id="paint0_linear_10_242" x1="202" y1="41.5" x2="202" y2="323" gradientUnits="userSpaceOnUse">
<stop stop-color="#D623C4" stop-opacity="0.69"/>
<stop offset="1" stop-color="#EBFF00"/>
</linearGradient>
</defs>
</svg>
