<svg width="672" height="253" viewBox="0 0 672 253" fill="none" xmlns="http://www.w3.org/2000/svg">
<path id="Vector" d="M597.111 252.203C586.47 252.402 574.799 252.114 562.096 251.338C496.391 247.32 411.07 230.673 321.848 204.464C232.627 178.255 150.164 145.613 89.6523 112.555C60.175 96.4511 37.4955 81.1096 22.2445 66.9559C6.09768 51.9722 -1.08945 38.7825 0.881977 27.755C4.7233 6.27132 42.1985 0.885584 72.9599 0.150802L73.0287 3.26336C30.7851 4.27231 6.01996 13.2223 3.29506 28.464C-0.17606 47.8765 31.6529 77.4858 90.62 109.701C150.999 142.687 233.31 175.265 322.39 201.433C411.47 227.6 496.635 244.219 562.194 248.229C626.219 252.145 664.932 243.257 668.403 223.844C671.285 207.726 649.861 184.463 608.079 158.339L609.164 155.553C639.523 174.536 674.863 201.915 670.816 224.553C668.844 235.581 657.894 243.442 638.268 247.917C627.08 250.468 613.307 251.899 597.111 252.203Z" fill="#6C63FF"/>
</svg>
